<!-- icon666.com - MILLIONS vector ICONS FREE --><svg id="Layer_1" enable-background="new 0 0 52 52" viewBox="0 0 52 52" xmlns="http://www.w3.org/2000/svg" xmlns:xlink="http://www.w3.org/1999/xlink"><linearGradient id="lg1"><stop offset="0" stop-color="#4c5c75"></stop><stop offset="1" stop-color="#1d2943"></stop></linearGradient><linearGradient id="SVGID_1_" gradientUnits="userSpaceOnUse" x1="26.483" x2="26.743" xlink:href="#lg1" y1="6.773" y2="-.412"></linearGradient><linearGradient id="SVGID_2_" gradientUnits="userSpaceOnUse" x1="42.614" x2="-1.838" xlink:href="#lg1" y1="18.482" y2="18.482"></linearGradient><linearGradient id="lg2"><stop offset="0" stop-color="#f34b58"></stop><stop offset=".3765" stop-color="#f14957"></stop><stop offset=".5907" stop-color="#ec4055"></stop><stop offset=".7641" stop-color="#e33252"></stop><stop offset=".9149" stop-color="#d61f4e"></stop><stop offset="1" stop-color="#cc104a"></stop></linearGradient><linearGradient id="SVGID_3_" gradientUnits="userSpaceOnUse" x1="26" x2="26" xlink:href="#lg2" y1="35.231" y2="48.604"></linearGradient><linearGradient id="SVGID_4_" gradientUnits="userSpaceOnUse" x1="8.719" x2="43.281" xlink:href="#lg2" y1="37.137" y2="37.137"></linearGradient><linearGradient id="lg3"><stop offset="0" stop-color="#ffdd95"></stop><stop offset="1" stop-color="#f9a83d"></stop></linearGradient><linearGradient id="SVGID_5_" gradientUnits="userSpaceOnUse" x1="26.001" x2="26.001" xlink:href="#lg3" y1="28.814" y2="35.838"></linearGradient><linearGradient id="SVGID_6_" gradientUnits="userSpaceOnUse" x1="31.654" x2="27.251" y1="27.954" y2="23.551"><stop offset="0" stop-color="#ffde9b" stop-opacity="0"></stop><stop offset="1" stop-color="#ef7b56"></stop></linearGradient><linearGradient id="SVGID_7_" gradientUnits="userSpaceOnUse" x1="17.402" x2="34.638" xlink:href="#lg3" y1="17.372" y2="17.372"></linearGradient><g id="_x36_0"><path d="m38.5 16.4c-1.1-8.6-5.4-14.4-9.8-14.4-.6 0-1.3.1-1.9.4-.5.2-1.1.2-1.6 0-.6-.3-1.2-.4-1.9-.4-4.4 0-8.7 5.8-9.8 14.4s1.6 16 5.9 16.6c1.9.3 11.1.3 13.1 0 4.4-.6 7-8 6-16.6z" fill="url(#SVGID_1_)"></path><path d="m13.7 17.3c1-7.8 5.3-13.1 9.7-13.1.6 0 1.2.1 1.8.3.5.2 1.1.2 1.6 0 .6-.2 1.2-.3 1.8-.3 4.3 0 8.6 5.3 9.7 13.2 1.1 7.8-1.6 14.7-5.8 15.2-1.9.3-11 .3-12.9 0-4.3-.6-7-7.4-5.9-15.3z" fill="url(#SVGID_2_)"></path><g><path d="m44.8 44.7c0 7.1-37.7 7.1-37.7 0 0 0 .1-2.6.7-9.5s12.5-7.1 12.5-7.1h11.3s12 .2 12.5 7.1c.7 6.9.7 9.5.7 9.5z" fill="url(#SVGID_3_)"></path><path d="m8.7 41.8c0 5.8 34.6 5.8 34.6 0 0 0-.1-2.1-.6-7.8s-11.5-5.9-11.5-5.9h-10.4s-11 .2-11.5 5.9-.6 7.8-.6 7.8z" fill="url(#SVGID_4_)"></path><path d="m34.4 28.4c-1.1-.2-1.9-.2-3.1-.3-.5 0-1-.5-.9-1l.5-7.1h-9.7l.5 7.1c0 .6-.4 1-1 1-1.2 0-2 .1-3.1.2 0 2.3 3.7 8.4 8.4 8.4 4.7.1 8.4-6 8.4-8.3z" fill="url(#SVGID_5_)"></path><g><path d="m34.4 28.4c-1.1-.2-1.9-.2-3.1-.3-.5 0-1-.5-.9-1l.5-7.1h-3.3l-6.1 4.9 9.6 9.6c2-2 3.3-4.7 3.3-6.1z" fill="url(#SVGID_6_)"></path></g></g><path d="m34.3 10.8c0-.2-.2-.4-.4-.6-.6-.4-1.1-.9-1.4-1.5-.3-.5-1.1-.5-1.4 0-2.6 4.2-10.3 4.8-12.9 4.8-.5 0-.8.4-.8.9.2 2.8 1 11.6 8.1 11.8 6.3.2 8.5-7.3 8.7-8v-.1c.7-3.4.3-6.3.1-7.3z" fill="url(#SVGID_7_)"></path></g></svg>